<svg xmlns="http://www.w3.org/2000/svg" xmlns:xlink="http://www.w3.org/1999/xlink" width="2245" zoomAndPan="magnify" viewBox="0 0 1683.75 1190.250009" height="1587" preserveAspectRatio="xMidYMid meet" version="1.0"><defs><g/><clipPath id="09c48ed21b"><path d="M 18.625 423.332031 L 509.441406 423.332031 L 509.441406 798 L 18.625 798 Z M 18.625 423.332031 " clip-rule="nonzero"/></clipPath><clipPath id="8f37395636"><path d="M 511 502.171875 L 758 502.171875 L 758 748 L 511 748 Z M 511 502.171875 " clip-rule="nonzero"/></clipPath><clipPath id="7a43dbea5c"><path d="M 1426.898438 496.105469 L 1672.679688 496.105469 L 1672.679688 719.40625 L 1426.898438 719.40625 Z M 1426.898438 496.105469 " clip-rule="nonzero"/></clipPath></defs><g clip-path="url(#09c48ed21b)"><path fill="#169d53" d="M 110.550781 673.273438 L 121.914062 673.273438 C 126.820312 673.273438 130.691406 677.40625 130.691406 682.054688 C 130.691406 686.960938 126.5625 690.832031 121.914062 690.832031 L 110.550781 690.832031 C 105.644531 690.832031 101.773438 686.703125 101.773438 682.054688 C 101.511719 677.40625 105.644531 673.273438 110.550781 673.273438 Z M 352.761719 797.996094 C 351.210938 797.996094 349.921875 797.996094 348.371094 797.996094 C 348.113281 797.996094 347.855469 797.996094 347.597656 797.996094 L 241.726562 797.996094 C 236.820312 797.996094 232.949219 793.863281 232.949219 789.214844 C 232.949219 784.308594 237.078125 780.433594 241.726562 780.433594 L 286.140625 780.433594 C 291.046875 780.433594 294.921875 776.304688 294.921875 771.65625 C 294.921875 766.75 291.046875 762.875 286.140625 762.875 L 195.246094 762.875 C 190.339844 762.875 186.46875 758.746094 186.46875 754.097656 C 186.46875 749.191406 190.597656 745.316406 195.246094 745.316406 L 216.679688 745.316406 C 221.585938 745.316406 225.457031 741.1875 225.457031 736.539062 C 225.457031 731.632812 221.328125 727.757812 216.679688 727.757812 L 165.292969 727.757812 C 160.386719 727.757812 156.515625 723.628906 156.515625 718.980469 C 156.515625 714.074219 160.644531 710.199219 165.292969 710.199219 L 189.308594 710.199219 C 194.214844 710.199219 198.085938 706.070312 198.085938 701.421875 C 198.085938 696.515625 193.957031 692.640625 189.308594 692.640625 L 152.125 692.640625 C 147.21875 692.640625 143.34375 688.507812 143.34375 683.863281 C 143.34375 678.957031 147.476562 675.082031 152.125 675.082031 L 221.328125 675.082031 C 226.234375 675.082031 230.105469 670.949219 230.105469 666.300781 C 230.105469 661.394531 225.976562 657.523438 221.328125 657.523438 L 131.726562 657.523438 C 126.820312 657.523438 122.945312 653.390625 122.945312 648.742188 C 122.945312 643.835938 127.078125 639.964844 131.726562 639.964844 L 162.195312 639.964844 C 167.101562 639.964844 170.976562 635.832031 170.976562 631.183594 C 170.976562 626.277344 167.101562 622.40625 162.195312 622.40625 L 129.917969 622.40625 C 125.011719 622.40625 121.136719 618.273438 121.136719 613.625 C 121.136719 608.71875 125.269531 604.847656 129.917969 604.847656 L 162.96875 604.847656 C 167.875 604.847656 171.75 600.714844 171.75 596.066406 C 171.75 591.160156 167.617188 587.289062 162.96875 587.289062 L 146.960938 587.289062 C 142.054688 587.289062 138.179688 583.15625 138.179688 578.507812 C 138.179688 573.601562 142.3125 569.726562 146.960938 569.726562 L 198.863281 569.726562 C 203.769531 569.726562 207.640625 565.597656 207.640625 560.949219 C 207.640625 556.042969 203.511719 552.167969 198.863281 552.167969 L 128.886719 552.167969 C 123.980469 552.167969 120.105469 548.039062 120.105469 543.390625 C 120.105469 538.484375 124.238281 534.609375 128.886719 534.609375 L 186.726562 534.609375 C 191.632812 534.609375 195.503906 530.480469 195.503906 525.832031 C 195.503906 521.441406 192.40625 517.828125 188.015625 517.050781 L 184.144531 517.050781 C 179.238281 517.050781 175.363281 512.921875 175.363281 508.273438 C 175.363281 503.367188 179.496094 499.492188 184.144531 499.492188 L 225.976562 499.492188 C 229.847656 498.460938 232.6875 495.101562 232.6875 490.972656 C 232.6875 486.582031 229.589844 482.964844 225.199219 482.191406 L 192.921875 482.191406 C 188.015625 482.191406 184.144531 478.0625 184.144531 473.414062 C 184.144531 468.507812 188.273438 464.632812 192.921875 464.632812 L 254.378906 464.632812 C 259.285156 464.632812 263.160156 460.5 263.160156 455.855469 C 263.160156 451.722656 260.320312 448.367188 256.445312 447.332031 L 256.703125 447.074219 L 219.519531 447.074219 C 214.613281 447.074219 210.742188 442.941406 210.742188 438.292969 C 210.742188 433.386719 214.871094 429.515625 219.519531 429.515625 L 302.667969 429.515625 C 318.417969 425.640625 335.203125 423.578125 352.246094 423.578125 C 403.886719 423.578125 444.171875 434.421875 483.160156 463.34375 C 486.777344 465.925781 488.84375 469.796875 489.359375 474.1875 C 489.875 478.578125 488.585938 482.707031 485.742188 486.324219 L 455.273438 522.992188 C 449.851562 529.445312 440.296875 530.738281 433.582031 525.574219 C 408.535156 506.980469 383.230469 497.683594 349.664062 497.683594 C 290.015625 497.683594 244.566406 550.878906 244.566406 612.078125 C 244.566406 678.695312 288.464844 729.566406 355.601562 729.566406 C 381.941406 729.566406 404.664062 723.886719 423.769531 712.523438 C 428.675781 709.683594 431.519531 704.519531 431.519531 698.839844 L 431.519531 666.300781 C 431.519531 657.523438 424.289062 650.292969 415.507812 650.292969 L 366.1875 650.292969 C 357.410156 650.292969 350.179688 643.0625 350.179688 634.285156 L 350.179688 596.582031 C 350.179688 587.804688 357.410156 580.574219 366.1875 580.574219 L 493.492188 580.574219 C 502.269531 580.574219 509.5 587.804688 509.5 596.582031 L 509.5 732.148438 C 509.5 737.054688 507.433594 741.445312 503.5625 744.542969 C 486.003906 758.488281 465.601562 770.625 442.363281 780.695312 C 416.023438 792.3125 386.328125 797.996094 352.761719 797.996094 Z M 149.542969 780.175781 L 217.710938 780.175781 C 222.617188 780.175781 226.492188 784.308594 226.492188 788.957031 C 226.492188 793.863281 222.359375 797.734375 217.710938 797.734375 L 149.542969 797.734375 C 144.636719 797.734375 140.761719 793.605469 140.761719 788.957031 C 140.503906 784.050781 144.636719 780.175781 149.542969 780.175781 Z M 54.257812 708.910156 L 73.109375 708.910156 C 78.015625 708.910156 81.890625 713.039062 81.890625 717.6875 C 81.890625 722.59375 77.757812 726.46875 73.109375 726.46875 L 54.257812 726.46875 C 49.351562 726.46875 45.480469 722.335938 45.480469 717.6875 C 45.480469 712.78125 49.351562 708.910156 54.257812 708.910156 Z M 104.355469 708.910156 L 139.472656 708.910156 C 144.378906 708.910156 148.25 713.039062 148.25 717.6875 C 148.25 722.59375 144.121094 726.46875 139.472656 726.46875 L 104.355469 726.46875 C 99.449219 726.46875 95.574219 722.335938 95.574219 717.6875 C 95.574219 712.78125 99.449219 708.910156 104.355469 708.910156 Z M 81.628906 566.628906 L 115.972656 566.628906 C 120.878906 566.628906 124.753906 570.761719 124.753906 575.410156 C 124.753906 580.316406 120.621094 584.1875 115.972656 584.1875 L 81.628906 584.1875 C 76.722656 584.1875 72.851562 580.058594 72.851562 575.410156 C 72.851562 570.503906 76.722656 566.628906 81.628906 566.628906 Z M 27.40625 602.007812 L 105.128906 602.007812 C 110.035156 602.007812 113.90625 606.136719 113.90625 610.785156 C 113.90625 615.691406 110.035156 619.566406 105.128906 619.566406 L 27.40625 619.566406 C 22.5 619.566406 18.625 615.433594 18.625 610.785156 C 18.625 606.136719 22.757812 602.007812 27.40625 602.007812 Z M 134.050781 460.242188 L 167.617188 460.242188 C 172.523438 460.242188 176.398438 464.375 176.398438 469.023438 C 176.398438 473.929688 172.265625 477.800781 167.617188 477.800781 L 134.050781 477.800781 C 129.144531 477.800781 125.269531 473.671875 125.269531 469.023438 C 125.269531 464.375 129.144531 460.242188 134.050781 460.242188 Z M 184.144531 424.867188 L 197.3125 424.867188 C 202.21875 424.867188 206.09375 429 206.09375 433.648438 C 206.09375 438.554688 201.960938 442.425781 197.3125 442.425781 L 184.144531 442.425781 C 179.238281 442.425781 175.363281 438.292969 175.363281 433.648438 C 175.363281 428.742188 179.238281 424.867188 184.144531 424.867188 Z M 114.683594 495.363281 L 156.257812 495.363281 C 161.164062 495.363281 165.035156 499.492188 165.035156 504.140625 C 165.035156 509.046875 160.902344 512.921875 156.257812 512.921875 L 114.683594 512.921875 C 109.777344 512.921875 105.902344 508.789062 105.902344 504.140625 C 105.644531 499.492188 109.777344 495.363281 114.683594 495.363281 Z M 114.683594 495.363281 " fill-opacity="1" fill-rule="evenodd"/></g><g clip-path="url(#8f37395636)"><path fill="#169d53" d="M 633.417969 502.171875 C 657.230469 502.171875 678.429688 507.882812 697.015625 519.402344 C 715.601562 530.824219 730.121094 545.441406 740.671875 563.253906 C 751.222656 581.066406 756.839844 600.8125 757.613281 622.496094 C 758.386719 644.179688 752.871094 665.476562 741.058594 686.289062 C 731.089844 703.519531 718.117188 717.167969 702.144531 727.429688 C 686.171875 737.6875 669.136719 744.078125 651.035156 746.691406 C 632.933594 749.207031 614.734375 747.757812 596.535156 742.140625 C 578.335938 736.527344 561.882812 726.554688 547.457031 712.035156 C 531.195312 695.484375 520.355469 676.316406 514.933594 654.632812 C 509.511719 632.949219 509.996094 611.171875 516.289062 589.488281 C 519 580.773438 523.453125 573.515625 529.648438 567.804688 C 535.84375 562.09375 542.8125 557.832031 550.652344 555.121094 C 558.492188 552.410156 566.625 551.152344 575.046875 551.539062 C 583.46875 551.832031 591.308594 553.574219 598.570312 556.769531 C 605.828125 559.960938 611.925781 564.414062 616.863281 570.320312 C 621.800781 576.226562 624.800781 583.386719 625.671875 591.808594 C 621.125 588.519531 615.703125 586.777344 609.410156 586.582031 C 603.117188 586.390625 597.019531 587.746094 591.113281 590.648438 C 585.210938 593.550781 580.273438 597.910156 576.207031 603.8125 C 572.140625 609.71875 570.109375 616.976562 570.109375 625.785156 C 570.109375 640.886719 573.304688 653.375 579.597656 663.34375 C 585.886719 673.316406 593.824219 680.769531 603.3125 685.707031 C 612.796875 690.644531 623.058594 693.160156 634.09375 693.160156 C 645.128906 693.160156 655.390625 690.644531 664.878906 685.511719 C 674.363281 680.382812 682.300781 672.734375 688.59375 662.667969 C 694.886719 652.601562 698.078125 640.015625 698.078125 624.914062 C 698.078125 613.105469 695.949219 602.75 691.789062 593.746094 C 687.527344 584.742188 681.914062 577.191406 674.847656 571.386719 C 667.78125 565.480469 659.554688 561.414062 650.164062 559.1875 C 640.773438 556.960938 630.898438 556.863281 620.347656 558.996094 C 615.800781 553.574219 610.28125 549.3125 603.796875 546.121094 C 597.308594 542.636719 590.339844 540.503906 582.789062 539.539062 C 575.238281 538.472656 567.6875 538.667969 560.140625 540.019531 C 552.589844 541.375 545.523438 543.988281 538.84375 547.960938 C 550.941406 533.4375 564.882812 522.210938 580.949219 514.273438 C 596.921875 506.140625 614.445312 502.171875 633.417969 502.171875 Z M 633.417969 502.171875 " fill-opacity="1" fill-rule="nonzero"/></g><g clip-path="url(#7a43dbea5c)"><path fill="#000000" d="M 1487.386719 496.082031 L 1449.300781 496.257812 L 1449.410156 518.585938 L 1472.53125 518.476562 L 1481.824219 540.765625 L 1496.566406 540.765625 L 1496.566406 540.785156 L 1642.445312 540.785156 L 1611.429688 596.613281 L 1530.855469 596.613281 L 1530.855469 596.589844 L 1517.3125 596.589844 L 1497.527344 628.144531 C 1493.0625 635.289062 1492.828125 644.316406 1496.917969 651.675781 C 1501.003906 659.03125 1508.757812 663.601562 1517.179688 663.601562 L 1650.273438 663.601562 L 1650.273438 641.273438 L 1517.179688 641.273438 L 1516.460938 639.964844 L 1529.613281 618.941406 L 1611.429688 618.941406 C 1619.546875 618.941406 1627.019531 614.527344 1630.949219 607.449219 L 1671.191406 535.03125 C 1673.125 531.570312 1673.070312 527.367188 1671.0625 523.953125 C 1669.050781 520.546875 1665.375 518.457031 1661.421875 518.457031 L 1496.722656 518.457031 Z M 1426.945312 563.09375 L 1426.945312 585.425781 L 1497.964844 585.425781 L 1498.421875 584.75 L 1512.03125 563.09375 Z M 1426.945312 607.753906 L 1426.945312 630.085938 L 1469.828125 630.085938 L 1484.003906 607.753906 Z M 1516.265625 674.769531 C 1515.53125 674.769531 1514.804688 674.804688 1514.074219 674.875 C 1513.347656 674.949219 1512.625 675.054688 1511.90625 675.199219 C 1511.1875 675.339844 1510.480469 675.515625 1509.78125 675.730469 C 1509.082031 675.941406 1508.390625 676.1875 1507.714844 676.46875 C 1507.039062 676.746094 1506.378906 677.058594 1505.734375 677.40625 C 1505.089844 677.75 1504.464844 678.125 1503.855469 678.53125 C 1503.246094 678.9375 1502.660156 679.371094 1502.09375 679.835938 C 1501.53125 680.300781 1500.988281 680.792969 1500.472656 681.308594 C 1499.953125 681.824219 1499.460938 682.367188 1499 682.933594 C 1498.535156 683.496094 1498.097656 684.085938 1497.691406 684.691406 C 1497.285156 685.300781 1496.910156 685.925781 1496.566406 686.570312 C 1496.222656 687.21875 1495.910156 687.878906 1495.628906 688.554688 C 1495.347656 689.230469 1495.101562 689.917969 1494.890625 690.617188 C 1494.679688 691.316406 1494.5 692.023438 1494.359375 692.742188 C 1494.214844 693.460938 1494.109375 694.183594 1494.035156 694.910156 C 1493.964844 695.636719 1493.929688 696.367188 1493.929688 697.097656 C 1493.929688 697.828125 1493.964844 698.558594 1494.035156 699.289062 C 1494.109375 700.015625 1494.214844 700.738281 1494.359375 701.453125 C 1494.5 702.171875 1494.679688 702.878906 1494.890625 703.582031 C 1495.101562 704.28125 1495.347656 704.96875 1495.628906 705.644531 C 1495.910156 706.320312 1496.222656 706.980469 1496.566406 707.625 C 1496.910156 708.269531 1497.285156 708.898438 1497.691406 709.503906 C 1498.097656 710.113281 1498.535156 710.699219 1499 711.265625 C 1499.460938 711.832031 1499.953125 712.371094 1500.472656 712.886719 C 1500.988281 713.40625 1501.53125 713.894531 1502.09375 714.359375 C 1502.660156 714.824219 1503.246094 715.257812 1503.855469 715.664062 C 1504.464844 716.070312 1505.089844 716.449219 1505.734375 716.792969 C 1506.378906 717.136719 1507.039062 717.449219 1507.714844 717.730469 C 1508.390625 718.007812 1509.082031 718.253906 1509.78125 718.46875 C 1510.480469 718.679688 1511.1875 718.855469 1511.90625 719 C 1512.625 719.140625 1513.347656 719.25 1514.074219 719.320312 C 1514.804688 719.394531 1515.53125 719.429688 1516.265625 719.429688 C 1516.996094 719.429688 1517.726562 719.394531 1518.453125 719.320312 C 1519.179688 719.25 1519.902344 719.140625 1520.621094 719 C 1521.339844 718.855469 1522.046875 718.679688 1522.746094 718.46875 C 1523.449219 718.253906 1524.136719 718.007812 1524.8125 717.730469 C 1525.488281 717.449219 1526.148438 717.136719 1526.792969 716.792969 C 1527.4375 716.449219 1528.066406 716.070312 1528.671875 715.664062 C 1529.28125 715.257812 1529.867188 714.824219 1530.433594 714.359375 C 1531 713.894531 1531.539062 713.40625 1532.058594 712.886719 C 1532.574219 712.371094 1533.066406 711.828125 1533.527344 711.265625 C 1533.992188 710.699219 1534.429688 710.113281 1534.835938 709.503906 C 1535.242188 708.898438 1535.617188 708.269531 1535.960938 707.625 C 1536.304688 706.980469 1536.617188 706.320312 1536.898438 705.644531 C 1537.179688 704.96875 1537.425781 704.28125 1537.636719 703.582031 C 1537.851562 702.878906 1538.027344 702.171875 1538.167969 701.453125 C 1538.3125 700.738281 1538.417969 700.015625 1538.492188 699.289062 C 1538.5625 698.558594 1538.597656 697.828125 1538.597656 697.097656 C 1538.597656 696.367188 1538.5625 695.636719 1538.492188 694.910156 C 1538.417969 694.183594 1538.3125 693.460938 1538.167969 692.742188 C 1538.027344 692.023438 1537.851562 691.316406 1537.636719 690.617188 C 1537.425781 689.917969 1537.179688 689.230469 1536.898438 688.554688 C 1536.617188 687.878906 1536.304688 687.21875 1535.960938 686.570312 C 1535.617188 685.925781 1535.242188 685.300781 1534.835938 684.691406 C 1534.429688 684.085938 1533.992188 683.496094 1533.527344 682.933594 C 1533.066406 682.367188 1532.574219 681.824219 1532.058594 681.308594 C 1531.539062 680.792969 1531 680.300781 1530.433594 679.835938 C 1529.867188 679.371094 1529.28125 678.9375 1528.671875 678.53125 C 1528.066406 678.125 1527.4375 677.75 1526.792969 677.40625 C 1526.148438 677.058594 1525.488281 676.746094 1524.8125 676.46875 C 1524.136719 676.1875 1523.449219 675.941406 1522.746094 675.730469 C 1522.046875 675.515625 1521.339844 675.339844 1520.621094 675.199219 C 1519.902344 675.054688 1519.179688 674.949219 1518.453125 674.875 C 1517.726562 674.804688 1516.996094 674.769531 1516.265625 674.769531 Z M 1627.9375 674.769531 C 1627.207031 674.769531 1626.476562 674.804688 1625.75 674.875 C 1625.023438 674.949219 1624.300781 675.054688 1623.582031 675.199219 C 1622.863281 675.339844 1622.15625 675.515625 1621.457031 675.730469 C 1620.753906 675.941406 1620.066406 676.1875 1619.390625 676.46875 C 1618.714844 676.746094 1618.054688 677.058594 1617.410156 677.40625 C 1616.765625 677.75 1616.140625 678.125 1615.53125 678.53125 C 1614.921875 678.9375 1614.335938 679.371094 1613.769531 679.835938 C 1613.203125 680.300781 1612.664062 680.792969 1612.144531 681.308594 C 1611.628906 681.824219 1611.136719 682.367188 1610.675781 682.933594 C 1610.210938 683.496094 1609.773438 684.085938 1609.367188 684.691406 C 1608.960938 685.300781 1608.585938 685.925781 1608.242188 686.570312 C 1607.898438 687.21875 1607.585938 687.878906 1607.304688 688.554688 C 1607.023438 689.230469 1606.777344 689.917969 1606.566406 690.617188 C 1606.355469 691.316406 1606.175781 692.023438 1606.035156 692.742188 C 1605.890625 693.460938 1605.785156 694.183594 1605.710938 694.910156 C 1605.640625 695.636719 1605.605469 696.367188 1605.605469 697.097656 C 1605.605469 697.828125 1605.640625 698.558594 1605.710938 699.289062 C 1605.785156 700.015625 1605.890625 700.738281 1606.035156 701.453125 C 1606.175781 702.171875 1606.355469 702.878906 1606.566406 703.582031 C 1606.777344 704.28125 1607.023438 704.96875 1607.304688 705.644531 C 1607.585938 706.320312 1607.898438 706.980469 1608.242188 707.625 C 1608.585938 708.269531 1608.960938 708.898438 1609.367188 709.503906 C 1609.773438 710.113281 1610.210938 710.699219 1610.675781 711.265625 C 1611.136719 711.832031 1611.628906 712.371094 1612.144531 712.886719 C 1612.664062 713.40625 1613.203125 713.894531 1613.769531 714.359375 C 1614.335938 714.824219 1614.921875 715.257812 1615.53125 715.664062 C 1616.140625 716.070312 1616.765625 716.449219 1617.410156 716.792969 C 1618.054688 717.136719 1618.714844 717.449219 1619.390625 717.730469 C 1620.066406 718.007812 1620.753906 718.253906 1621.457031 718.46875 C 1622.15625 718.679688 1622.863281 718.855469 1623.582031 719 C 1624.300781 719.140625 1625.023438 719.25 1625.75 719.320312 C 1626.476562 719.394531 1627.207031 719.429688 1627.9375 719.429688 C 1628.671875 719.429688 1629.402344 719.394531 1630.128906 719.320312 C 1630.855469 719.25 1631.578125 719.140625 1632.296875 719 C 1633.015625 718.855469 1633.722656 718.679688 1634.421875 718.46875 C 1635.121094 718.253906 1635.8125 718.007812 1636.488281 717.730469 C 1637.164062 717.449219 1637.824219 717.136719 1638.46875 716.792969 C 1639.113281 716.449219 1639.738281 716.070312 1640.347656 715.664062 C 1640.957031 715.257812 1641.542969 714.824219 1642.109375 714.359375 C 1642.675781 713.894531 1643.214844 713.40625 1643.734375 712.886719 C 1644.25 712.371094 1644.742188 711.828125 1645.203125 711.265625 C 1645.667969 710.699219 1646.105469 710.113281 1646.511719 709.503906 C 1646.917969 708.898438 1647.292969 708.269531 1647.636719 707.625 C 1647.980469 706.980469 1648.292969 706.320312 1648.574219 705.644531 C 1648.855469 704.96875 1649.101562 704.28125 1649.3125 703.582031 C 1649.523438 702.878906 1649.703125 702.171875 1649.84375 701.453125 C 1649.988281 700.738281 1650.09375 700.015625 1650.167969 699.289062 C 1650.238281 698.558594 1650.273438 697.828125 1650.273438 697.097656 C 1650.273438 696.367188 1650.238281 695.636719 1650.167969 694.910156 C 1650.09375 694.183594 1649.988281 693.460938 1649.84375 692.742188 C 1649.703125 692.023438 1649.523438 691.316406 1649.3125 690.617188 C 1649.101562 689.917969 1648.855469 689.230469 1648.574219 688.554688 C 1648.292969 687.878906 1647.980469 687.21875 1647.636719 686.570312 C 1647.292969 685.925781 1646.917969 685.300781 1646.511719 684.691406 C 1646.105469 684.085938 1645.667969 683.496094 1645.203125 682.933594 C 1644.742188 682.367188 1644.25 681.824219 1643.734375 681.308594 C 1643.214844 680.792969 1642.675781 680.300781 1642.109375 679.835938 C 1641.542969 679.371094 1640.957031 678.9375 1640.347656 678.53125 C 1639.738281 678.125 1639.113281 677.75 1638.46875 677.40625 C 1637.824219 677.058594 1637.164062 676.746094 1636.488281 676.46875 C 1635.8125 676.1875 1635.121094 675.941406 1634.421875 675.730469 C 1633.722656 675.515625 1633.015625 675.339844 1632.296875 675.199219 C 1631.578125 675.054688 1630.855469 674.949219 1630.128906 674.875 C 1629.402344 674.804688 1628.671875 674.769531 1627.9375 674.769531 Z M 1627.9375 674.769531 " fill-opacity="1" fill-rule="nonzero"/></g><g fill="#242424" fill-opacity="1"><g transform="translate(758.40825, 718.929192)"><g><path d="M 133.359375 4.453125 C 110.023438 4.453125 89.070312 -0.476562 70.5 -10.34375 C 51.9375 -20.207031 37.347656 -33.945312 26.734375 -51.5625 C 16.128906 -69.175781 10.828125 -89.125 10.828125 -111.40625 C 10.828125 -133.6875 16.128906 -153.628906 26.734375 -171.234375 C 37.347656 -188.847656 51.9375 -202.585938 70.5 -212.453125 C 89.070312 -222.328125 110.023438 -227.265625 133.359375 -227.265625 C 153.734375 -227.265625 172.085938 -223.65625 188.421875 -216.4375 C 204.765625 -209.226562 218.347656 -198.832031 229.171875 -185.25 L 189.0625 -148.96875 C 174.632812 -166.363281 157.128906 -175.0625 136.546875 -175.0625 C 124.453125 -175.0625 113.679688 -172.410156 104.234375 -167.109375 C 94.796875 -161.804688 87.476562 -154.328125 82.28125 -144.671875 C 77.082031 -135.015625 74.484375 -123.925781 74.484375 -111.40625 C 74.484375 -98.882812 77.082031 -87.796875 82.28125 -78.140625 C 87.476562 -68.484375 94.796875 -61.003906 104.234375 -55.703125 C 113.679688 -50.398438 124.453125 -47.75 136.546875 -47.75 C 157.128906 -47.75 174.632812 -56.445312 189.0625 -73.84375 L 229.171875 -37.5625 C 218.347656 -23.976562 204.765625 -13.578125 188.421875 -6.359375 C 172.085938 0.847656 153.734375 4.453125 133.359375 4.453125 Z M 133.359375 4.453125 "/></g></g></g><g fill="#242424" fill-opacity="1"><g transform="translate(974.493732, 718.929192)"><g><path d="M 92.9375 -175.375 C 121.582031 -175.375 143.4375 -168.847656 158.5 -155.796875 C 173.570312 -142.753906 181.109375 -122.757812 181.109375 -95.8125 L 181.109375 0 L 124.765625 0 L 124.765625 -22.28125 C 116.066406 -5.519531 99.09375 2.859375 73.84375 2.859375 C 60.476562 2.859375 48.914062 0.523438 39.15625 -4.140625 C 29.394531 -8.804688 22.019531 -15.117188 17.03125 -23.078125 C 12.039062 -31.035156 9.546875 -40.109375 9.546875 -50.296875 C 9.546875 -66.628906 15.804688 -79.304688 28.328125 -88.328125 C 40.847656 -97.347656 60.160156 -101.859375 86.265625 -101.859375 L 120.640625 -101.859375 C 119.578125 -120.109375 107.375 -129.234375 84.03125 -129.234375 C 75.75 -129.234375 67.363281 -127.90625 58.875 -125.25 C 50.394531 -122.59375 43.179688 -118.929688 37.234375 -114.265625 L 16.875 -155.328125 C 26.414062 -161.691406 38.03125 -166.625 51.71875 -170.125 C 65.40625 -173.625 79.144531 -175.375 92.9375 -175.375 Z M 90.71875 -35.328125 C 97.71875 -35.328125 103.867188 -37.023438 109.171875 -40.421875 C 114.484375 -43.816406 118.304688 -48.804688 120.640625 -55.390625 L 120.640625 -70.34375 L 94.53125 -70.34375 C 76.914062 -70.34375 68.109375 -64.507812 68.109375 -52.84375 C 68.109375 -47.53125 70.125 -43.28125 74.15625 -40.09375 C 78.1875 -36.914062 83.707031 -35.328125 90.71875 -35.328125 Z M 90.71875 -35.328125 "/></g></g></g><g fill="#242424" fill-opacity="1"><g transform="translate(1155.572233, 718.929192)"><g><path d="M 77.03125 -151.828125 C 83.1875 -159.679688 91.195312 -165.566406 101.0625 -169.484375 C 110.925781 -173.410156 122.222656 -175.375 134.953125 -175.375 L 134.953125 -120.953125 C 129.441406 -121.585938 124.878906 -121.90625 121.265625 -121.90625 C 108.328125 -121.90625 98.195312 -118.40625 90.875 -111.40625 C 83.550781 -104.40625 79.890625 -93.6875 79.890625 -79.25 L 79.890625 0 L 19.421875 0 L 19.421875 -172.515625 L 77.03125 -172.515625 Z M 77.03125 -151.828125 "/></g></g></g><g fill="#242424" fill-opacity="1"><g transform="translate(1277.775344, 718.929192)"><g><path d="M 138.453125 -7 C 133.359375 -3.820312 127.148438 -1.382812 119.828125 0.3125 C 112.515625 2.007812 104.71875 2.859375 96.4375 2.859375 C 73.945312 2.859375 56.65625 -2.65625 44.5625 -13.6875 C 32.46875 -24.71875 26.421875 -41.160156 26.421875 -63.015625 L 26.421875 -120.953125 L 1.265625 -120.953125 L 1.265625 -166.15625 L 26.421875 -166.15625 L 26.421875 -211.03125 L 86.890625 -211.03125 L 86.890625 -166.15625 L 126.359375 -166.15625 L 126.359375 -120.953125 L 86.890625 -120.953125 L 86.890625 -63.65625 C 86.890625 -57.5 88.535156 -52.671875 91.828125 -49.171875 C 95.117188 -45.671875 99.519531 -43.921875 105.03125 -43.921875 C 112.039062 -43.921875 118.195312 -45.726562 123.5 -49.34375 Z M 138.453125 -7 "/></g></g></g></svg>