<svg xmlns="http://www.w3.org/2000/svg" xmlns:xlink="http://www.w3.org/1999/xlink" width="2245" zoomAndPan="magnify" viewBox="0 0 1683.75 1190.250009" height="1587" preserveAspectRatio="xMidYMid meet" version="1.0"><defs><clipPath id="3b4f681917"><path d="M 0.40625 172 L 1107.925781 172 L 1107.925781 1017.769531 L 0.40625 1017.769531 Z M 0.40625 172 " clip-rule="nonzero"/></clipPath><clipPath id="1647dd5ddf"><path d="M 1111 370.972656 L 1682 370.972656 L 1682 939 L 1111 939 Z M 1111 370.972656 " clip-rule="nonzero"/></clipPath></defs><g clip-path="url(#3b4f681917)"><path fill="#169d53" d="M 207.832031 735.753906 L 233.46875 735.753906 C 244.539062 735.753906 253.28125 745.078125 253.28125 755.566406 C 253.28125 766.636719 243.957031 775.375 233.46875 775.375 L 207.832031 775.375 C 196.761719 775.375 188.023438 766.050781 188.023438 755.566406 C 187.4375 745.078125 196.761719 735.753906 207.832031 735.753906 Z M 754.367188 1017.179688 C 750.871094 1017.179688 747.960938 1017.179688 744.464844 1017.179688 C 743.878906 1017.179688 743.296875 1017.179688 742.714844 1017.179688 L 503.824219 1017.179688 C 492.753906 1017.179688 484.015625 1007.855469 484.015625 997.367188 C 484.015625 986.296875 493.335938 977.558594 503.824219 977.558594 L 604.042969 977.558594 C 615.113281 977.558594 623.851562 968.234375 623.851562 957.75 C 623.851562 946.675781 615.113281 937.9375 604.042969 937.9375 L 398.945312 937.9375 C 387.875 937.9375 379.136719 928.613281 379.136719 918.128906 C 379.136719 907.058594 388.457031 898.316406 398.945312 898.316406 L 447.304688 898.316406 C 458.375 898.316406 467.117188 888.996094 467.117188 878.507812 C 467.117188 867.4375 457.792969 858.695312 447.304688 858.695312 L 331.355469 858.695312 C 320.285156 858.695312 311.546875 849.375 311.546875 838.886719 C 311.546875 827.816406 320.867188 819.074219 331.355469 819.074219 L 385.542969 819.074219 C 396.613281 819.074219 405.355469 809.753906 405.355469 799.265625 C 405.355469 788.195312 396.03125 779.453125 385.542969 779.453125 L 301.640625 779.453125 C 290.570312 779.453125 281.832031 770.132812 281.832031 759.644531 C 281.832031 748.574219 291.152344 739.832031 301.640625 739.832031 L 457.792969 739.832031 C 468.863281 739.832031 477.605469 730.511719 477.605469 720.023438 C 477.605469 708.953125 468.28125 700.210938 457.792969 700.210938 L 255.609375 700.210938 C 244.539062 700.210938 235.800781 690.890625 235.800781 680.402344 C 235.800781 669.332031 245.121094 660.589844 255.609375 660.589844 L 324.363281 660.589844 C 335.433594 660.589844 344.175781 651.269531 344.175781 640.78125 C 344.175781 629.710938 335.433594 620.96875 324.363281 620.96875 L 251.53125 620.96875 C 240.460938 620.96875 231.722656 611.648438 231.722656 601.160156 C 231.722656 590.089844 241.042969 581.347656 251.53125 581.347656 L 326.113281 581.347656 C 337.183594 581.347656 345.921875 572.027344 345.921875 561.539062 C 345.921875 550.46875 336.601562 541.726562 326.113281 541.726562 L 289.988281 541.726562 C 278.917969 541.726562 270.175781 532.40625 270.175781 521.917969 C 270.175781 510.847656 279.5 502.105469 289.988281 502.105469 L 407.101562 502.105469 C 418.171875 502.105469 426.914062 492.785156 426.914062 482.296875 C 426.914062 471.226562 417.589844 462.484375 407.101562 462.484375 L 249.203125 462.484375 C 238.132812 462.484375 229.390625 453.164062 229.390625 442.675781 C 229.390625 431.605469 238.714844 422.863281 249.203125 422.863281 L 379.71875 422.863281 C 390.789062 422.863281 399.527344 413.542969 399.527344 403.054688 C 399.527344 393.148438 392.535156 384.992188 382.632812 383.242188 L 373.890625 383.242188 C 362.820312 383.242188 354.082031 373.921875 354.082031 363.433594 C 354.082031 352.363281 363.402344 343.625 373.890625 343.625 L 468.28125 343.625 C 477.023438 341.292969 483.429688 333.71875 483.429688 324.394531 C 483.429688 314.488281 476.4375 306.332031 466.535156 304.585938 L 393.703125 304.585938 C 382.632812 304.585938 373.890625 295.261719 373.890625 284.773438 C 373.890625 273.703125 383.214844 264.964844 393.703125 264.964844 L 532.375 264.964844 C 543.445312 264.964844 552.183594 255.640625 552.183594 245.152344 C 552.183594 235.832031 545.777344 228.257812 537.035156 225.925781 L 537.617188 225.34375 L 453.714844 225.34375 C 442.644531 225.34375 433.90625 216.019531 433.90625 205.53125 C 433.90625 194.460938 443.226562 185.722656 453.714844 185.722656 L 641.332031 185.722656 C 676.875 176.980469 714.746094 172.320312 753.203125 172.320312 C 869.734375 172.320312 960.628906 196.792969 1048.613281 262.050781 C 1056.769531 267.878906 1061.429688 276.617188 1062.597656 286.523438 C 1063.761719 296.425781 1060.847656 305.75 1054.4375 313.90625 L 985.683594 396.644531 C 973.449219 411.210938 951.890625 414.125 936.742188 402.472656 C 880.222656 360.519531 823.121094 339.542969 747.375 339.542969 C 612.78125 339.542969 510.234375 459.574219 510.234375 597.664062 C 510.234375 747.988281 609.285156 862.773438 760.777344 862.773438 C 820.210938 862.773438 871.484375 849.957031 914.601562 824.320312 C 925.671875 817.910156 932.082031 806.257812 932.082031 793.4375 L 932.082031 720.023438 C 932.082031 700.210938 915.765625 683.898438 895.957031 683.898438 L 784.667969 683.898438 C 764.855469 683.898438 748.542969 667.582031 748.542969 647.773438 L 748.542969 562.703125 C 748.542969 542.894531 764.855469 526.578125 784.667969 526.578125 L 1071.917969 526.578125 C 1091.730469 526.578125 1108.042969 542.894531 1108.042969 562.703125 L 1108.042969 868.601562 C 1108.042969 879.671875 1103.382812 889.578125 1094.644531 896.570312 C 1055.023438 928.03125 1008.992188 955.417969 956.550781 978.140625 C 897.121094 1004.359375 830.113281 1017.179688 754.367188 1017.179688 Z M 295.8125 976.976562 L 449.636719 976.976562 C 460.707031 976.976562 469.449219 986.296875 469.449219 996.785156 C 469.449219 1007.855469 460.125 1016.597656 449.636719 1016.597656 L 295.8125 1016.597656 C 284.742188 1016.597656 276.003906 1007.273438 276.003906 996.785156 C 275.421875 985.714844 284.742188 976.976562 295.8125 976.976562 Z M 80.8125 816.160156 L 123.347656 816.160156 C 134.417969 816.160156 143.15625 825.484375 143.15625 835.972656 C 143.15625 847.042969 133.835938 855.78125 123.347656 855.78125 L 80.8125 855.78125 C 69.742188 855.78125 61.003906 846.460938 61.003906 835.972656 C 61.003906 824.902344 69.742188 816.160156 80.8125 816.160156 Z M 193.847656 816.160156 L 273.089844 816.160156 C 284.160156 816.160156 292.902344 825.484375 292.902344 835.972656 C 292.902344 847.042969 283.578125 855.78125 273.089844 855.78125 L 193.847656 855.78125 C 182.777344 855.78125 174.039062 846.460938 174.039062 835.972656 C 174.039062 824.902344 182.777344 816.160156 193.847656 816.160156 Z M 142.574219 495.113281 L 220.070312 495.113281 C 231.140625 495.113281 239.878906 504.4375 239.878906 514.925781 C 239.878906 525.996094 230.554688 534.734375 220.070312 534.734375 L 142.574219 534.734375 C 131.503906 534.734375 122.765625 525.414062 122.765625 514.925781 C 122.765625 503.855469 131.503906 495.113281 142.574219 495.113281 Z M 20.214844 574.941406 L 195.597656 574.941406 C 206.667969 574.941406 215.40625 584.261719 215.40625 594.75 C 215.40625 605.820312 206.667969 614.5625 195.597656 614.5625 L 20.214844 614.5625 C 9.144531 614.5625 0.40625 605.238281 0.40625 594.75 C 0.40625 584.261719 9.726562 574.941406 20.214844 574.941406 Z M 260.855469 255.058594 L 336.601562 255.058594 C 347.671875 255.058594 356.410156 264.382812 356.410156 274.871094 C 356.410156 285.941406 347.089844 294.679688 336.601562 294.679688 L 260.855469 294.679688 C 249.785156 294.679688 241.042969 285.355469 241.042969 274.871094 C 241.042969 264.382812 249.785156 255.058594 260.855469 255.058594 Z M 373.890625 175.234375 L 403.605469 175.234375 C 414.675781 175.234375 423.417969 184.558594 423.417969 195.042969 C 423.417969 206.113281 414.09375 214.855469 403.605469 214.855469 L 373.890625 214.855469 C 362.820312 214.855469 354.082031 205.53125 354.082031 195.042969 C 354.082031 183.972656 362.820312 175.234375 373.890625 175.234375 Z M 217.15625 334.300781 L 310.964844 334.300781 C 322.035156 334.300781 330.773438 343.625 330.773438 354.109375 C 330.773438 365.183594 321.453125 373.921875 310.964844 373.921875 L 217.15625 373.921875 C 206.085938 373.921875 197.34375 364.597656 197.34375 354.109375 C 196.761719 343.625 206.085938 334.300781 217.15625 334.300781 Z M 217.15625 334.300781 " fill-opacity="1" fill-rule="evenodd"/></g><g clip-path="url(#1647dd5ddf)"><path fill="#169d53" d="M 1394.144531 370.972656 C 1449.121094 370.972656 1498.0625 384.15625 1540.972656 410.75 C 1583.882812 437.121094 1617.402344 470.867188 1641.765625 511.988281 C 1666.125 553.109375 1679.085938 598.699219 1680.875 648.761719 C 1682.660156 698.820312 1669.921875 747.988281 1642.65625 796.035156 C 1619.640625 835.816406 1589.691406 867.328125 1552.816406 891.015625 C 1515.941406 914.703125 1476.609375 929.453125 1434.820312 935.488281 C 1393.027344 941.300781 1351.011719 937.945312 1308.996094 924.984375 C 1266.984375 912.023438 1228.992188 889.003906 1195.691406 855.480469 C 1158.148438 817.265625 1133.117188 773.015625 1120.601562 722.957031 C 1108.085938 672.894531 1109.203125 622.613281 1123.730469 572.550781 C 1129.988281 552.4375 1140.269531 535.679688 1154.570312 522.492188 C 1168.875 509.308594 1184.964844 499.472656 1203.066406 493.214844 C 1221.167969 486.957031 1239.941406 484.054688 1259.382812 484.949219 C 1278.828125 485.617188 1296.929688 489.640625 1313.691406 497.015625 C 1330.453125 504.390625 1344.53125 514.671875 1355.929688 528.304688 C 1367.328125 541.933594 1374.253906 558.472656 1376.265625 577.917969 C 1365.761719 570.316406 1353.246094 566.296875 1338.722656 565.847656 C 1324.195312 565.402344 1310.117188 568.53125 1296.484375 575.234375 C 1282.851562 581.9375 1271.453125 591.996094 1262.066406 605.628906 C 1252.679688 619.261719 1247.988281 636.023438 1247.988281 656.359375 C 1247.988281 691.222656 1255.363281 720.050781 1269.886719 743.070312 C 1284.414062 766.089844 1302.742188 783.296875 1324.640625 794.695312 C 1346.542969 806.09375 1370.230469 811.902344 1395.710938 811.902344 C 1421.1875 811.902344 1444.875 806.09375 1466.777344 794.246094 C 1488.679688 782.402344 1507.003906 764.746094 1521.53125 741.503906 C 1536.054688 718.261719 1543.429688 689.210938 1543.429688 654.347656 C 1543.429688 627.082031 1538.515625 603.167969 1528.90625 582.386719 C 1519.070312 561.601562 1506.109375 544.171875 1489.796875 530.761719 C 1473.480469 517.128906 1454.484375 507.742188 1432.808594 502.601562 C 1411.128906 497.460938 1388.335938 497.238281 1363.976562 502.15625 C 1353.472656 489.640625 1340.734375 479.808594 1325.757812 472.433594 C 1310.785156 464.386719 1294.695312 459.46875 1277.261719 457.234375 C 1259.832031 454.777344 1242.398438 455.222656 1224.96875 458.351562 C 1207.535156 461.480469 1191.222656 467.515625 1175.800781 476.679688 C 1203.738281 443.15625 1235.917969 417.230469 1273.015625 398.90625 C 1309.890625 380.132812 1350.34375 370.972656 1394.144531 370.972656 Z M 1394.144531 370.972656 " fill-opacity="1" fill-rule="nonzero"/></g></svg>